<svg xmlns="http://www.w3.org/2000/svg" xmlns:xlink="http://www.w3.org/1999/xlink" width="500" zoomAndPan="magnify" viewBox="0 0 375 374.999991" height="500" preserveAspectRatio="xMidYMid meet" version="1.0"><defs><clipPath id="278f9aad8e"><path d="M 31.800781 2.144531 L 343.050781 2.144531 L 343.050781 372.644531 L 31.800781 372.644531 Z M 31.800781 2.144531 " clip-rule="nonzero"/></clipPath></defs><g clip-path="url(#278f9aad8e)"><path fill="#fe6400" d="M 187.160156 33.574219 C 221.335938 33.574219 252.839844 47.953125 275.375 69.820312 C 297.242188 92.355469 311.621094 123.859375 311.621094 158.03125 C 311.621094 173.75 308.210938 188.796875 303.394531 202.507812 C 297.242188 216.890625 289.679688 229.863281 279.449219 241.5 L 278.785156 241.5 C 267.8125 253.804688 255.507812 265.445312 242.535156 277.75 L 241.199219 277.082031 L 230.230469 266.109375 L 198.058594 233.941406 L 209.695312 222.300781 L 242.535156 254.472656 C 250.761719 246.246094 259.660156 238.089844 266.476562 229.863281 L 267.144531 229.863281 C 276.039062 220.300781 282.859375 208.660156 287.679688 196.355469 C 291.753906 184.71875 294.5 171.746094 294.5 158.03125 C 294.5 127.9375 282.859375 101.25 263.070312 82.125 C 243.945312 62.335938 217.257812 50.695312 187.160156 50.695312 C 157.734375 50.695312 131.121094 62.335938 111.253906 82.125 C 92.128906 101.25 79.824219 127.9375 79.824219 158.03125 C 79.824219 171.746094 82.570312 184.71875 87.3125 196.355469 C 92.128906 208.664062 98.949219 220.300781 107.847656 229.863281 C 115.332031 238.089844 122.894531 246.246094 131.789062 253.804688 L 174.855469 210.738281 L 157.734375 193.613281 C 146.761719 199.765625 132.457031 198.433594 122.894531 188.796875 L 91.464844 157.367188 L 100.359375 148.46875 L 126.378906 174.488281 L 134.605469 166.261719 L 108.585938 140.242188 L 116.816406 132.015625 L 142.832031 158.03125 L 151.0625 149.804688 L 125.042969 123.785156 L 133.273438 115.558594 L 164.703125 146.988281 C 174.265625 156.550781 176.339844 170.929688 170.1875 181.828125 L 186.570312 198.953125 L 204.359375 181.160156 C 198.875 169.523438 202.285156 153.140625 214.589844 140.835938 C 228.96875 126.453125 250.171875 123.710938 261.808594 135.351562 C 273.445312 146.988281 270.703125 168.1875 256.324219 182.570312 C 244.019531 194.875 227.636719 198.285156 215.996094 192.800781 L 131.789062 277.007812 C 118.816406 265.371094 106.511719 253.0625 95.539062 241.425781 C 85.3125 229.789062 77.082031 216.816406 71.597656 202.433594 C 66.113281 188.722656 63.371094 173.75 63.371094 157.957031 C 63.371094 123.785156 77.082031 92.28125 99.617188 69.746094 C 122.226562 47.953125 152.988281 33.574219 187.160156 33.574219 Z M 187.160156 2.144531 C 208.363281 2.144531 228.230469 6.21875 246.6875 13.78125 C 265.8125 22.007812 282.933594 32.90625 297.316406 47.953125 C 312.363281 62.335938 323.335938 79.382812 331.488281 98.582031 C 338.976562 117.039062 343.125 137.574219 343.125 158.105469 C 343.125 167.667969 342.457031 177.230469 340.382812 186.128906 C 339.050781 195.691406 336.304688 205.253906 332.894531 214.148438 C 329.488281 223.042969 325.410156 231.269531 319.925781 239.425781 C 315.105469 247.652344 308.953125 255.140625 302.800781 262.699219 C 296.648438 269.519531 289.828125 276.414062 283.675781 282.566406 C 276.855469 288.71875 270.703125 295.539062 263.808594 301.023438 L 251.503906 312.664062 L 242.609375 320.890625 C 236.457031 326.375 230.972656 331.863281 228.894531 333.195312 C 224.820312 337.273438 220 341.425781 215.183594 346.167969 L 187.160156 372.855469 L 159.808594 346.167969 C 154.324219 341.351562 150.246094 337.273438 146.09375 333.195312 C 142.019531 329.785156 137.199219 324.96875 132.382812 320.890625 C 124.894531 314.070312 117.335938 307.175781 109.847656 300.359375 C 103.695312 294.203125 96.875 288.050781 90.722656 281.898438 C 84.570312 275.746094 78.417969 269.59375 72.265625 262.773438 C 65.445312 255.289062 59.960938 247.726562 54.472656 239.5 C 49.730469 231.195312 45.652344 223.042969 42.167969 214.148438 C 38.757812 205.253906 36.015625 195.691406 33.941406 186.128906 C 32.605469 177.230469 31.867188 167.667969 31.867188 158.105469 C 31.867188 137.574219 35.941406 117.039062 43.503906 98.582031 C 50.988281 79.457031 62.628906 62.335938 77.007812 47.953125 C 92.058594 32.90625 109.179688 21.933594 127.636719 13.78125 C 146.835938 6.21875 166.628906 2.144531 187.160156 2.144531 Z M 241.199219 28.160156 C 224.078125 21.34375 206.359375 17.933594 187.160156 17.933594 C 168.703125 17.933594 150.246094 21.34375 133.789062 28.160156 C 116.667969 34.980469 101.617188 45.285156 87.980469 58.925781 C 75.007812 71.898438 64.703125 87.613281 57.882812 104.070312 C 51.0625 121.191406 46.914062 138.910156 46.914062 158.105469 C 46.914062 166.335938 47.582031 175.230469 49.65625 183.382812 C 50.988281 192.28125 53.066406 200.507812 56.476562 208.664062 C 59.886719 216.148438 63.296875 223.710938 68.113281 231.195312 C 72.191406 238.683594 77.675781 245.578125 83.160156 251.730469 L 83.828125 252.398438 C 89.3125 258.550781 95.464844 264.703125 101.617188 270.855469 C 108.4375 277.675781 114.589844 283.160156 120.742188 289.3125 L 132.382812 300.285156 L 142.613281 309.179688 C 146.6875 313.253906 151.507812 317.40625 156.324219 322.152344 C 161.808594 326.96875 166.554688 331.046875 170.707031 335.125 L 187.089844 351.503906 L 204.210938 335.125 C 208.289062 331.046875 213.105469 326.894531 217.925781 322.152344 C 225.410156 315.332031 228.894531 311.921875 232.304688 309.179688 L 241.199219 300.949219 L 253.507812 289.980469 C 259.660156 283.828125 266.476562 277.675781 272.632812 271.523438 C 278.785156 265.371094 284.9375 258.550781 291.089844 252.398438 L 291.089844 251.730469 C 297.242188 245.578125 302.058594 238.757812 306.804688 231.195312 C 311.621094 223.710938 315.03125 216.148438 318.441406 208.664062 C 321.183594 200.433594 323.925781 192.28125 325.261719 183.382812 C 326.59375 175.15625 327.335938 166.261719 327.335938 158.105469 C 327.335938 138.980469 323.925781 121.191406 317.105469 104.070312 C 310.289062 87.6875 299.984375 71.898438 286.34375 58.925781 C 273.296875 45.210938 257.582031 34.980469 241.199219 28.160156 Z M 230.230469 289.386719 C 227.488281 292.128906 224.078125 294.871094 221.335938 297.613281 C 211.773438 305.84375 202.210938 314.738281 193.316406 323.632812 L 187.160156 329.117188 L 181.675781 323.632812 C 172.113281 314.738281 163.21875 305.84375 153.65625 297.613281 C 150.246094 294.203125 146.835938 291.460938 143.425781 288.71875 L 155.730469 276.414062 C 158.476562 279.15625 161.882812 282.566406 164.628906 285.308594 C 172.855469 292.128906 180.34375 299.023438 187.160156 305.84375 C 194.648438 299.023438 202.210938 292.128906 209.695312 285.308594 C 212.441406 282.566406 215.183594 279.824219 218.59375 277.082031 Z M 230.230469 289.386719 " fill-opacity="1" fill-rule="nonzero"/></g></svg>